<svg width="307" height="84" viewBox="0 0 307 84" fill="none" xmlns="http://www.w3.org/2000/svg">
<path d="M68.909 42.5C72.609 45.1 76.309 47.7 80.109 50.4C86.609 55 93.209 59.6 99.709 64.2C104.209 67.4 110.909 67 115.409 63.2C119.809 59.5 121.309 54.7 119.809 49.3C118.309 43.8 114.509 40.6 108.909 39.5C105.409 38.8 102.209 39.6 99.209 41.7C95.609 44.3 91.909 46.8 88.209 49.4C87.509 49.9 87.009 49.9 86.309 49.4C82.009 46.3 77.709 43.3 73.409 40.2C72.609 39.6 72.609 39.6 73.409 39C78.609 35.2 83.909 31.4 89.309 27.7C95.509 23.4 102.309 21.7 109.809 22.4C122.509 23.6 133.109 32.9 136.409 45.4C140.709 61.6 130.209 78.7 114.009 82.5C105.109 84.6 96.709 83.2 89.209 77.9C77.609 69.7 66.109 61.5 54.609 53.3C54.509 53.2 54.409 53.1 54.309 53C59.209 49.6 64.009 46.1 68.909 42.5Z" fill="#23386D"/>
<path d="M30.609 66.5C33.709 66.6 36.409 65.4 38.909 63.6C42.309 61.1 45.809 58.8 49.209 56.4C49.909 55.9 50.509 55.9 51.209 56.4C55.409 59.4 59.609 62.4 63.909 65.5C64.209 65.7 64.509 66 64.909 66.2C62.509 67.9 60.209 69.6 57.909 71.2C54.309 73.7 50.809 76.4 47.109 78.8C43.809 80.9 40.309 82.3 36.409 83C36.309 83 36.109 83 36.009 83C35.109 80.1 34.109 77.3 33.209 74.4C32.409 71.8 31.509 69.1 30.609 66.5Z" fill="#CE7314"/>
<path d="M17.109 25.5C19.909 24 23.009 23.2 26.109 22.7C33.809 21.5 41.009 23.1 47.509 27.4C47.609 27.5 47.809 27.6 47.909 27.7C47.809 27.9 47.809 28 47.709 28.2C46.509 31.9 45.309 35.7 44.009 39.4C43.409 41.2 43.009 43.1 42.309 44.8C41.009 43.9 39.809 43.1 38.509 42.1C33.909 38.5 29.009 38.6 23.909 41.3C23.709 41.4 23.509 41.5 23.309 41.6C21.209 36.2 19.109 30.9 17.109 25.5Z" fill="#604A97"/>
<path d="M42.2 44.4C42.9 42.6 43.3 40.8 43.9 39C44.2 38.9 44.2 38.6 44.3 38.4C45.5 34.8 46.7 31.1 48 27.5C49.7 28.7 51.4 29.8 53 31C58.1 34.7 63.6 38.6 68.7 42.3C68.6 42.2 68.8 42.4 68.7 42.3C63.9 45.8 59.1 49.3 54.2 52.8C50.2 50 46.2 47.2 42.2 44.4Z" fill="#DA4747"/>
<path d="M18.509 46.9C16.909 50.3 16.909 53.8 18.009 57.3C15.209 58.1 12.309 59 9.509 59.8C8.909 59.7 8.409 60 7.909 60.1C5.809 60.7 3.609 61.2 1.509 62C-0.690998 54.8 -0.590998 47.6 2.509 40.6C2.909 40.7 3.209 40.8 3.609 41C5.409 41.7 7.309 42.4 9.109 43.2C12.309 44.5 15.409 45.7 18.509 46.9Z" fill="#47B8B2"/>
<path d="M9.50902 59.9C12.309 59.1 15.209 58.2 18.009 57.4C19.209 61 21.509 63.5 24.909 65.1C24.809 65.2 24.809 65.3 24.709 65.5C21.309 69.9 17.809 74.4 14.409 78.8C10.509 76.4 7.40902 73.2 5.00902 69.4C3.60902 67.2 2.40901 64.9 1.70901 62.3C4.20901 61.5 6.90902 60.8 9.50902 59.9Z" fill="#CE0477"/>
<path d="M14.309 78.7C17.709 74.3 21.209 69.8 24.609 65.4C24.709 65.3 24.709 65.2 24.809 65C26.709 65.8 28.609 66.3 30.609 66.4C31.509 69 32.309 71.7 33.209 74.3C34.109 77.2 35.109 80 36.009 82.9C33.409 83.5 30.809 83.5 28.309 83.4C23.509 83.1 19.009 81.6 14.909 79C14.709 79 14.509 78.8 14.309 78.7Z" fill="#CFBD04"/>
<path d="M18.509 46.9C15.409 45.7 12.209 44.4 9.109 43.2C7.309 42.5 5.409 41.8 3.609 41C3.209 40.9 2.909 40.8 2.509 40.6C5.509 34.2 10.009 29.1 16.309 25.7C16.509 25.6 16.809 25.5 17.109 25.4C19.209 30.8 21.309 36.1 23.309 41.5C21.909 42.6 20.609 43.8 19.609 45.2C19.209 45.9 18.909 46.4 18.509 46.9Z" fill="#49A6C9"/>
<path d="M38.709 8.3C38.709 12.9 35.009 16.6 30.409 16.6C25.809 16.6 22.109 12.9 22.109 8.3C22.109 3.7 25.809 0 30.409 0C35.009 0 38.709 3.7 38.709 8.3Z" fill="#49A6C9"/>
<path d="M95.609 8.3C95.609 3.7 99.309 0 103.909 0C108.509 0 112.209 3.8 112.209 8.4C112.209 12.9 108.509 16.6 103.909 16.7C99.309 16.6 95.609 12.9 95.609 8.3Z" fill="#22396E"/>
<path d="M48.209 27.8C47.009 31.4 45.809 35.1 44.509 38.7C44.409 38.9 44.409 39.2 44.109 39.3C45.309 35.6 46.509 31.8 47.809 28.1C47.909 27.9 47.909 27.8 48.009 27.6C48.009 27.7 48.109 27.8 48.209 27.8Z" fill="#35386D"/>
<path d="M9.509 59.9C6.909 60.8 4.309 61.5 1.609 62.3L1.509 62.2C3.609 61.4 5.709 60.9 7.909 60.3C8.409 60.1 8.909 59.8 9.509 59.9Z" fill="#3E3978"/>
<path d="M178.909 32.2C178.909 27.9 178.809 24.1 178.609 21.1H188.609L189.109 25.2H189.309C190.509 23.6 193.309 20.4 199.009 20.4C203.209 20.4 206.409 22.3 207.809 25.6H207.909C209.209 23.9 210.709 22.6 212.409 21.7C214.109 20.8 216.009 20.4 218.209 20.4C225.209 20.4 229.309 25.5 229.309 34.6V53.8H217.709V36.4C217.709 32.4 216.509 30 213.909 30C212.009 30 210.809 31.2 210.309 32.8C210.109 33.5 210.009 34.5 210.009 35.2V53.8H198.309V36.1C198.309 32.5 197.209 30.1 194.509 30.1C192.409 30.1 191.309 31.7 190.909 32.8C190.609 33.6 190.609 34.4 190.609 35.2V53.9H178.909V32.2Z" fill="#23386D"/>
<path d="M250.509 53.7L249.909 50.8H249.709C247.409 53.4 244.209 54.3999 240.709 54.3999C234.009 54.3999 229.909 49.6 229.909 44.2C229.909 35.4 237.809 31.5 248.909 31.5V31.2C248.909 29.9 247.909 28.4 243.509 28.4C240.109 28.4 236.409 29.6 234.309 30.8L232.209 23.2C234.309 22.1 238.909 20.2 245.709 20.2C256.909 20.2 260.809 26.5 260.809 34.6V45.6C260.809 48.9 261.009 51.9 261.309 53.5H250.509V53.7ZM249.109 38.8C244.209 38.8 241.509 40.2 241.509 43C241.509 45.1 242.909 46.2 244.909 46.2C246.609 46.2 248.409 45 249.009 43.2C249.109 42.7 249.109 42.1 249.109 41.5V38.8Z" fill="#23386D"/>
<path d="M263.109 32.1C263.109 26.9 263.009 23.8 262.809 21.1H273.009L273.409 27H273.709C275.409 22.1 279.609 20.4 282.409 20.4C283.509 20.4 283.909 20.4 284.809 20.6L285.109 31.5C284.409 31.4 283.109 31.4 281.809 31.4C278.309 31.4 275.909 32.9 275.309 35.5C275.209 36.1 275.109 36.8 275.109 37.5V53.6H263.109V32.1Z" fill="#23386D"/>
<path d="M299.309 11.8V21.1H306.109V29.9H299.309V39.3C299.309 43.2 300.209 44.8 303.109 44.8C304.309 44.8 305.309 44.7 305.909 44.6V53.7C304.509 54.2 301.909 54.6 298.809 54.6C295.309 54.6 292.309 53.4 290.609 51.6C288.609 49.6 287.609 46.4 287.609 41.4V31.5H283.609V20.4H287.609V14.4L299.309 11.8Z" fill="#23386D"/>
<path d="M153.009 44.5C154.909 45.7 159.209 47 162.209 47C164.809 47 165.809 46.4 165.809 45.2C165.809 44 165.009 43.4 161.509 42.3C154.209 40 151.709 36 151.809 32.2C151.809 25.6 157.409 20.8 166.109 20.8C170.209 20.8 173.909 21.7 176.009 22.7L174.109 31C172.509 30.2 169.409 29.2 166.809 29.2C164.709 29.2 163.509 29.8 163.509 31.1C163.509 32.2 164.509 32.9 168.509 34.2C175.009 36.3 177.509 39.7 177.609 44.5C177.609 50.8 172.709 55.6 162.509 55.6C157.909 55.6 153.809 54.6 151.209 53.3L153.009 44.5Z" fill="#23386D"/>
<path d="M157.395 78.0991C156.152 78.0991 155.043 77.8113 154.068 77.2356C153.113 76.6407 152.357 75.806 151.803 74.7313C151.268 73.6375 151 72.3518 151 70.8742C151 69.435 151.268 68.178 151.803 67.1034C152.357 66.0288 153.113 65.194 154.068 64.5991C155.024 63.9851 156.114 63.678 157.338 63.678C158.58 63.678 159.632 63.9947 160.492 64.6279C161.371 65.242 162.04 66.048 162.499 67.0458C162.958 68.0245 163.188 69.0608 163.188 70.1546V70.7303H152.749C152.711 72.4574 153.113 73.8582 153.954 74.9328C154.814 75.9883 155.971 76.516 157.424 76.516C158.494 76.516 159.393 76.2473 160.119 75.71C160.846 75.1535 161.438 74.338 161.897 73.2633L163.331 74.0981C162.107 76.7655 160.129 78.0991 157.395 78.0991ZM152.864 69.2335H161.467C161.371 68.4851 161.132 67.8038 160.75 67.1898C160.387 66.5757 159.909 66.0864 159.316 65.7217C158.743 65.3571 158.083 65.1748 157.338 65.1748C156.171 65.1748 155.187 65.5394 154.384 66.2687C153.6 66.9787 153.093 67.967 152.864 69.2335Z" fill="#CE0477"/>
<path d="M171.544 78.0991C170.321 78.0991 169.231 77.8017 168.275 77.2068C167.319 76.5928 166.564 75.7484 166.01 74.6738C165.455 73.58 165.178 72.3134 165.178 70.8742C165.178 69.435 165.455 68.178 166.01 67.1034C166.564 66.0288 167.319 65.194 168.275 64.5991C169.231 63.9851 170.321 63.678 171.544 63.678C172.577 63.678 173.494 63.9275 174.297 64.4264C175.1 64.9062 175.741 65.5682 176.219 66.4126V57H177.968V77.7825H176.362L176.333 75.2495C175.836 76.1322 175.177 76.8326 174.355 77.3507C173.533 77.8497 172.596 78.0991 171.544 78.0991ZM171.602 76.4584C172.5 76.4584 173.294 76.2281 173.982 75.7676C174.689 75.307 175.244 74.6642 175.645 73.839C176.047 72.9947 176.247 72.0064 176.247 70.8742C176.247 69.742 176.047 68.7633 175.645 67.9382C175.244 67.113 174.689 66.4701 173.982 66.0096C173.294 65.549 172.5 65.3188 171.602 65.3188C170.703 65.3188 169.9 65.549 169.193 66.0096C168.485 66.4701 167.931 67.113 167.53 67.9382C167.128 68.7633 166.927 69.742 166.927 70.8742C166.927 72.0064 167.128 72.9947 167.53 73.839C167.931 74.6642 168.485 75.307 169.193 75.7676C169.9 76.2281 170.703 76.4584 171.602 76.4584Z" fill="#CE0477"/>
<path d="M186.036 78.0991C184.583 78.0991 183.408 77.629 182.509 76.6887C181.611 75.7484 181.161 74.4051 181.161 72.6588V63.9947H182.882V72.4286C182.882 73.7719 183.197 74.7793 183.828 75.451C184.478 76.1226 185.31 76.4584 186.323 76.4584C187.489 76.4584 188.436 76.0938 189.162 75.3646C189.889 74.6354 190.252 73.7431 190.252 72.6876V63.9947H192.001V77.7537H190.367L190.309 75.8252C189.908 76.4584 189.334 76.9957 188.589 77.4371C187.843 77.8785 186.992 78.0991 186.036 78.0991Z" fill="#CE0477"/>
<path d="M202.578 83.7697V63.9947H204.184L204.241 66.4989C204.738 65.597 205.398 64.8966 206.22 64.3977C207.042 63.8987 207.979 63.6493 209.03 63.6493C210.254 63.6493 211.343 63.9563 212.299 64.5704C213.255 65.1652 214.001 66.0096 214.536 67.1034C215.09 68.178 215.368 69.435 215.368 70.8742C215.368 72.3134 215.09 73.58 214.536 74.6738C214.001 75.7484 213.255 76.5928 212.299 77.2068C211.343 77.8017 210.254 78.0991 209.03 78.0991C207.998 78.0991 207.08 77.8497 206.277 77.3507C205.474 76.8518 204.824 76.1802 204.327 75.3358V83.7697H202.578ZM209.001 76.4584C209.9 76.4584 210.693 76.2281 211.382 75.7676C212.089 75.307 212.643 74.6642 213.045 73.839C213.446 72.9947 213.647 72.0064 213.647 70.8742C213.647 69.742 213.446 68.7633 213.045 67.9382C212.643 67.0938 212.089 66.4414 211.382 65.9808C210.693 65.5203 209.9 65.29 209.001 65.29C207.644 65.29 206.526 65.7985 205.646 66.8156C204.767 67.8134 204.327 69.1663 204.327 70.8742C204.327 72.5629 204.767 73.9158 205.646 74.9328C206.526 75.9499 207.644 76.4584 209.001 76.4584Z" fill="#CE0477"/>
<path d="M218.016 77.7825V57H219.765V77.7825H218.016Z" fill="#CE0477"/>
<path d="M226.847 78.0416C225.509 78.0608 224.419 77.7537 223.578 77.1205C222.756 76.4872 222.345 75.5661 222.345 74.3571C222.345 73.436 222.651 72.6301 223.263 71.9392C223.894 71.2484 224.687 70.7111 225.643 70.3273C226.618 69.9243 227.622 69.7228 228.654 69.7228C230.069 69.7228 231.187 70.0586 232.009 70.7303V68.3699C232.009 67.0842 231.742 66.2495 231.206 65.8657C230.671 65.4627 229.811 65.2612 228.625 65.2612C227.861 65.2612 227.01 65.4051 226.073 65.693C225.136 65.9616 224.343 66.307 223.693 66.7292L222.861 65.3475C223.607 64.8678 224.505 64.4648 225.557 64.1386C226.628 63.8124 227.65 63.6493 228.625 63.6493C230.365 63.6493 231.646 63.9851 232.468 64.6567C233.29 65.3284 233.701 66.5661 233.701 68.3699V75.9979C233.701 76.3625 233.797 76.5736 233.988 76.6311C234.198 76.6695 234.647 76.6215 235.336 76.4872V77.7249C235.145 77.8017 234.886 77.8689 234.561 77.9264C234.236 78.0032 233.931 78.0416 233.644 78.0416C232.994 78.0416 232.573 77.9072 232.382 77.6386C232.191 77.3699 232.076 76.8614 232.038 76.113C231.445 76.7655 230.661 77.2452 229.686 77.5522C228.711 77.8593 227.765 78.0224 226.847 78.0416ZM226.933 76.4584C227.851 76.4392 228.702 76.2953 229.486 76.0267C230.289 75.758 230.919 75.3742 231.378 74.8753C231.856 74.3571 232.076 73.7335 232.038 73.0043C231.981 72.4094 231.656 71.968 231.063 71.6802C230.47 71.3731 229.706 71.2292 228.769 71.2484C227.985 71.2484 227.23 71.3827 226.503 71.6514C225.777 71.92 225.184 72.2942 224.725 72.774C224.286 73.2345 224.066 73.7719 224.066 74.3859C224.066 75.0959 224.333 75.6237 224.869 75.9691C225.404 76.2953 226.092 76.4584 226.933 76.4584Z" fill="#CE0477"/>
<path d="M237.791 84C237.447 84 237.093 83.9712 236.73 83.9136C236.386 83.8753 236.08 83.8177 235.812 83.7409V82.1002C236.08 82.177 236.376 82.2345 236.701 82.2729C237.046 82.3305 237.371 82.3593 237.676 82.3593C238.384 82.3593 238.91 82.1962 239.254 81.8699C239.598 81.5629 239.923 81.016 240.229 80.2292L241.146 77.7825L235.755 63.9947H237.562L241.949 75.5949L246.165 63.9947H248L241.777 80.7761C241.376 81.8891 240.869 82.7047 240.257 83.2228C239.646 83.7409 238.823 84 237.791 84Z" fill="#CE0477"/>
</svg>
